<svg width="32" height="32" viewBox="0 0 32 32" fill="none" xmlns="http://www.w3.org/2000/svg">
<path d="M18.1 16C18.1 16.3956 17.9768 16.7822 17.7461 17.1111C17.5153 17.44 17.1874 17.6964 16.8036 17.8478C16.4199 17.9991 15.9977 18.0387 15.5903 17.9616C15.183 17.8844 14.8088 17.6939 14.5151 17.4142C14.2214 17.1345 14.0214 16.7781 13.9404 16.3902C13.8593 16.0022 13.9009 15.6001 14.0599 15.2346C14.2188 14.8692 14.488 14.5568 14.8333 14.3371C15.1786 14.1173 15.5847 14 16 14C16.557 14 17.0911 14.2107 17.4849 14.5858C17.8788 14.9609 18.1 15.4696 18.1 16ZM27.9 14C27.4847 14 27.0786 14.1173 26.7333 14.3371C26.388 14.5568 26.1188 14.8692 25.9599 15.2346C25.8009 15.6001 25.7593 16.0022 25.8404 16.3902C25.9214 16.7781 26.1214 17.1345 26.4151 17.4142C26.7088 17.6939 27.083 17.8844 27.4903 17.9616C27.8977 18.0387 28.3199 17.9991 28.7036 17.8478C29.0874 17.6964 29.4153 17.44 29.6461 17.1111C29.8768 16.7822 30 16.3956 30 16C30 15.4696 29.7787 14.9609 29.3849 14.5858C28.9911 14.2107 28.457 14 27.9 14ZM4.1 14C3.68466 14 3.27865 14.1173 2.9333 14.3371C2.58796 14.5568 2.3188 14.8692 2.15985 15.2346C2.00091 15.6001 1.95932 16.0022 2.04035 16.3902C2.12138 16.7781 2.32139 17.1345 2.61508 17.4142C2.90877 17.6939 3.28295 17.8844 3.69031 17.9616C4.09767 18.0387 4.51991 17.9991 4.90364 17.8478C5.28736 17.6964 5.61534 17.44 5.84609 17.1111C6.07684 16.7822 6.2 16.3956 6.2 16C6.2 15.4696 5.97875 14.9609 5.58493 14.5858C5.1911 14.2107 4.65696 14 4.1 14Z" fill="black"/>
<path d="M30 16L2 16" stroke="black"/>
</svg>
