<svg width="26" height="20" viewBox="0 0 26 20" fill="none" xmlns="http://www.w3.org/2000/svg">
<path d="M2.41313 3.02853C1.96355 3.16423 1.49953 3.51049 1.27502 3.88498C0.977143 4.37167 0.991579 3.94107 1.00641 11.6266L1.02105 18.6424L1.18225 18.9561C1.37767 19.3444 1.69493 19.6535 2.09069 19.8501L2.38856 20H24.5645L24.8479 19.8736C25.3754 19.635 25.7467 19.2324 25.9079 18.7177C26.0056 18.4133 26.0056 18.3104 25.9959 11.3647L25.9813 4.32073L25.8248 4.0118C25.6344 3.63729 25.2827 3.30978 24.8918 3.13677L24.6133 3.01035L13.5745 3.00106C7.50291 2.99595 2.48149 3.00976 2.41313 3.02853ZM24.3597 4.12835C24.5306 4.19392 24.8334 4.49356 24.8334 4.59647C24.8334 4.6901 14.0776 12.6656 13.8381 12.7452C13.594 12.8295 13.2471 12.8341 13.0125 12.7545C12.7829 12.6749 2.16859 4.76976 2.16859 4.67611C2.16859 4.54515 2.42275 4.25499 2.62292 4.16138C2.82803 4.06321 2.82803 4.06321 13.5154 4.06321C22.3815 4.06302 24.228 4.07224 24.3597 4.12835ZM24.863 17.9499C24.8338 17.9826 16.8962 12.0616 16.8962 12.0107C16.8962 11.9872 18.6888 10.644 20.8771 9.02451L24.8581 6.08515L24.8727 12.0107C24.8775 15.2683 24.8727 17.9406 24.863 17.9499ZM6.21332 9.16022C8.34311 10.7377 10.0819 12.0435 10.0819 12.0621C10.077 12.0901 2.28621 17.927 2.20823 17.9547C2.18865 17.964 2.16927 15.315 2.16927 12.0664C2.16927 6.38442 2.17421 6.16463 2.25728 6.22527C2.30594 6.25806 4.08368 7.57827 6.21332 9.16022ZM20.1642 15.9048C22.631 17.7396 24.2624 18.9846 24.2282 19.0033C24.155 19.0503 2.81888 19.0503 2.78496 19.0033C2.77012 18.9753 10.8055 12.9375 11.0348 12.8065C11.0738 12.783 11.2938 12.9237 11.6259 13.181C11.919 13.4056 12.2999 13.6537 12.4758 13.7286C12.7786 13.8643 12.8225 13.8692 13.4283 13.8692C14.2489 13.8645 14.4002 13.8084 15.2306 13.1907C15.7826 12.7834 15.8754 12.7321 15.9535 12.7834C16.0023 12.8111 17.8927 14.2199 20.1642 15.9048Z" fill="#D9D9D9"/>
</svg>
