<svg width="40" height="40" viewBox="0 0 40 40" fill="none" xmlns="http://www.w3.org/2000/svg">
<path d="M20.1391 37.1838C19.5303 37.1838 19.1286 36.7218 18.8009 36.2793C18.124 35.4916 7.71729 23.2496 7.71729 15.5059C7.71729 8.65648 13.2898 3.08398 20.1399 3.08398C26.9899 3.08398 32.5626 8.65617 32.5626 15.5059C32.5626 18.828 30.6828 23.3488 26.9754 28.9434C25.3809 31.3491 22.5153 35.1692 21.4771 36.2407L21.4963 36.2547C21.1649 36.7043 20.7598 37.1838 20.1391 37.1838ZM20.1391 4.65805C14.1577 4.65805 9.29065 9.52406 9.29065 15.5057C9.29065 22.7566 19.9047 35.1495 20.0117 35.2745L20.0496 35.3218C20.0825 35.3666 20.1121 35.4057 20.1384 35.4396C20.1646 35.4057 20.1945 35.3666 20.2278 35.3218L20.6734 34.7172L20.7118 34.7428C22.7397 32.291 30.9868 21.921 30.9868 15.5061C30.9862 9.5244 26.1206 4.65805 20.1391 4.65805ZM20.1391 21.5838C16.7318 21.5838 13.9596 18.8113 13.9596 15.404C13.9596 11.9966 16.7317 9.22445 20.1391 9.22445C23.547 9.22445 26.3195 11.9966 26.3195 15.404C26.3195 18.8113 23.547 21.5838 20.1391 21.5838ZM20.1391 10.7987C17.6 10.7987 15.534 12.8647 15.534 15.4038C15.534 17.9431 17.6 20.0091 20.1391 20.0091C22.6785 20.0091 24.7451 17.9431 24.7451 15.4038C24.7451 12.8647 22.6788 10.7987 20.1391 10.7987Z" fill="#D9D9D9"/>
</svg>
