<svg width="41" height="40" viewBox="0 0 41 40" fill="none" xmlns="http://www.w3.org/2000/svg">
<path d="M23.2514 32.3C21.208 32.3003 19.2131 31.678 17.5318 30.5165C14.037 28.0898 11.0044 25.0572 8.57792 21.5618C7.24066 19.6279 6.62386 17.2861 6.83534 14.9444C7.04652 12.6025 8.07222 10.4089 9.73394 8.74535C10.4087 8.07823 11.319 7.7041 12.2678 7.7041C13.2167 7.7041 14.127 8.07825 14.8017 8.74535L17.0527 10.9963C17.7195 11.6707 18.0936 12.5814 18.0936 13.5299C18.0936 14.4787 17.7195 15.389 17.0527 16.0638C16.6743 16.4346 16.6074 17.0196 16.8928 17.4661C18.108 19.37 19.7242 20.986 21.6282 22.2014C22.0746 22.4868 22.6596 22.42 23.0304 22.0415C23.7049 21.3747 24.6155 21.0006 25.564 21.0006C26.5129 21.0006 27.4235 21.3747 28.0979 22.0415L30.3489 24.2925C31.016 24.9672 31.3898 25.8775 31.3898 26.8264C31.3898 27.7752 31.016 28.6855 30.3489 29.3603C28.4675 31.2435 25.914 32.3013 23.2517 32.2997L23.2514 32.3ZM12.2678 10.1601C11.97 10.1702 11.6859 10.2883 11.4683 10.4921C10.2137 11.7468 9.44011 13.4026 9.28292 15.1699C9.12545 16.9371 9.5942 18.7035 10.6074 20.1601C12.8492 23.4228 15.6717 26.2454 18.9347 28.4875C20.3914 29.5007 22.1577 29.9694 23.925 29.8119C25.6922 29.6544 27.3478 28.8808 28.6027 27.6265C28.8065 27.4089 28.9246 27.1248 28.9347 26.827C28.9356 26.5267 28.816 26.2386 28.6027 26.0275L26.3639 23.7887C26.1488 23.5827 25.8625 23.468 25.5644 23.468C25.2666 23.468 24.9803 23.5827 24.7652 23.7887C24.1896 24.3652 23.435 24.728 22.6253 24.8175C21.8157 24.9069 20.9999 24.7177 20.3124 24.281C18.1005 22.8662 16.2239 20.9856 14.8143 18.7704C14.3776 18.0832 14.1881 17.2671 14.2775 16.4578C14.3672 15.6481 14.7301 14.8931 15.3063 14.3178C15.5181 14.1057 15.6371 13.818 15.6371 13.5183C15.6371 13.2186 15.5181 12.9308 15.3063 12.7188L13.0678 10.4925C12.8567 10.2792 12.5686 10.1593 12.2683 10.1605L12.2678 10.1601Z" fill="#D9D9D9"/>
<path d="M27.7038 18.7696C27.3779 18.7696 27.0648 18.6402 26.834 18.4095C26.6036 18.1787 26.4739 17.8659 26.4739 17.5397C26.4739 16.8872 26.2148 16.2613 25.7534 15.8002C25.292 15.3387 24.6664 15.0796 24.0139 15.0796C23.5744 15.0796 23.1686 14.8453 22.9488 14.4644C22.7291 14.0838 22.7291 13.6151 22.9488 13.2346C23.1685 12.854 23.5744 12.6196 24.0139 12.6196C25.3188 12.6196 26.5704 13.1378 27.4929 14.0606C28.4154 14.9832 28.9339 16.2347 28.9339 17.5396C28.9339 17.8659 28.8042 18.1787 28.5735 18.4094C28.3431 18.6401 28.0299 18.7695 27.7037 18.7695L27.7038 18.7696Z" fill="#D9D9D9"/>
<path d="M32.6241 18.7697C32.2978 18.7697 31.985 18.6403 31.7543 18.4096C31.5239 18.1789 31.3942 17.8661 31.3942 17.5398C31.3942 15.5824 30.6166 13.7053 29.2326 12.3213C27.8487 10.9373 25.9715 10.1597 24.0141 10.1597C23.5747 10.1597 23.1688 9.92535 22.949 9.54479C22.7293 9.16424 22.7293 8.69518 22.949 8.31464C23.1688 7.93408 23.5746 7.69971 24.0141 7.69971C26.624 7.69971 29.1267 8.73643 30.9721 10.5818C32.8175 12.4272 33.8542 14.9299 33.8542 17.5398C33.8542 17.866 33.7245 18.1788 33.4938 18.4096C33.2631 18.6403 32.9503 18.7697 32.6241 18.7697Z" fill="#D9D9D9"/>
</svg>
