<svg width="20" height="20" viewBox="0 0 20 20" fill="none" xmlns="http://www.w3.org/2000/svg">
<path d="M13.0963 5.48939C13.0953 5.73704 13.0783 5.89193 13.0352 6.0999C13.0141 6.20122 12.9871 6.30131 12.9564 6.40019C12.9413 6.44917 12.9244 6.49769 12.9068 6.54591C12.8981 6.57002 12.8888 6.59383 12.8797 6.61763C12.8734 6.6335 12.8672 6.64921 12.8606 6.66493C12.8727 6.63609 12.8722 6.63685 12.8591 6.66722C12.775 6.86055 12.6702 7.04457 12.5507 7.21819C12.5365 7.23894 12.5217 7.25939 12.5069 7.27969C12.5026 7.28564 12.4521 7.35201 12.4912 7.30151C12.4605 7.34133 12.4285 7.38009 12.3961 7.41839C12.3259 7.5014 12.2507 7.58028 12.1726 7.65597C12.1004 7.72585 12.0244 7.79177 11.9463 7.85479C11.8813 7.90728 11.9925 7.82 11.9258 7.8705C11.9059 7.88576 11.8854 7.90041 11.865 7.91521C11.8173 7.94969 11.7684 7.98219 11.7189 8.01409C11.6339 8.06886 11.5457 8.11861 11.4562 8.1653C11.4112 8.1888 11.3652 8.21062 11.3193 8.23183C11.2963 8.24251 11.2729 8.25258 11.2496 8.2628C11.3138 8.23488 11.2142 8.27669 11.2027 8.28111C11.0019 8.35924 10.7927 8.41478 10.5806 8.45186C10.5547 8.45644 10.5287 8.46025 10.5028 8.46422C10.4164 8.47719 10.5618 8.45766 10.4749 8.46788C10.4221 8.47414 10.3691 8.47841 10.316 8.48192C10.1996 8.48985 10.0829 8.49031 9.9663 8.48619C9.91289 8.48421 9.85964 8.48039 9.80638 8.47582C9.77998 8.47353 9.75358 8.47063 9.72719 8.46788C9.72139 8.46727 9.63487 8.45583 9.69652 8.46452C9.58452 8.44866 9.47374 8.42562 9.36403 8.3983C9.26409 8.37343 9.16567 8.34245 9.06862 8.30827C9.0204 8.29118 8.9728 8.27257 8.92549 8.25335C8.98378 8.277 8.90611 8.24434 8.89986 8.2416C8.86888 8.22786 8.83837 8.21322 8.80785 8.19857C8.61818 8.10732 8.43874 7.99562 8.27027 7.86974C8.32138 7.90788 8.25516 7.85738 8.24952 7.8528C8.22983 7.83724 8.21061 7.82106 8.19123 7.80504C8.15262 7.77284 8.11509 7.73942 8.07801 7.70555C7.99759 7.63215 7.92176 7.55403 7.84912 7.47316C7.81556 7.43577 7.78321 7.39732 7.75147 7.35841C7.74643 7.35216 7.69501 7.28639 7.73514 7.33842C7.71973 7.31843 7.70493 7.29829 7.68998 7.278C7.62528 7.18995 7.56608 7.09794 7.51053 7.00395C7.45896 6.91667 7.41257 6.82649 7.36924 6.73494C7.3584 6.7119 7.34803 6.68871 7.3378 6.66551C7.30332 6.58785 7.36008 6.72167 7.32804 6.64293C7.30561 6.58769 7.28516 6.53139 7.26578 6.47508C7.23221 6.37743 7.20444 6.27794 7.18018 6.17769C7.16797 6.12703 7.1576 6.07591 7.14783 6.02479C7.14295 5.99901 7.13867 5.97322 7.13425 5.94743C7.13242 5.93614 7.11746 5.82795 7.1257 5.89387C7.09793 5.67247 7.09534 5.44801 7.11243 5.22571C7.11655 5.17291 7.1225 5.12027 7.12906 5.06763C7.12128 5.12927 7.13303 5.04337 7.13394 5.03757C7.13806 5.01163 7.14279 4.98599 7.14752 4.9602C7.16782 4.84958 7.19498 4.74032 7.22656 4.63245C7.2554 4.53403 7.28989 4.43729 7.32773 4.34207C7.35901 4.26364 7.3053 4.39349 7.33887 4.31613C7.34894 4.29278 7.35962 4.26974 7.3703 4.2467C7.39517 4.19299 7.42203 4.1402 7.4498 4.08801C7.4971 3.99875 7.54959 3.91223 7.60483 3.82785C7.63245 3.78574 7.66144 3.74454 7.69089 3.70379C7.69516 3.69784 7.74567 3.63147 7.70661 3.68197C7.72705 3.65542 7.74826 3.62948 7.76947 3.60354C7.90222 3.44165 8.05191 3.29425 8.21275 3.16026C8.23213 3.14424 8.25166 3.12853 8.27135 3.11296C8.21993 3.15386 8.28584 3.10259 8.29225 3.09786C8.33253 3.0678 8.37404 3.03911 8.4157 3.01088C8.50633 2.94954 8.60063 2.89385 8.69692 2.84181C8.74147 2.8177 8.78694 2.79512 8.83272 2.77315C8.85561 2.76216 8.8788 2.75163 8.90199 2.74111C8.91023 2.73729 8.98836 2.70403 8.92427 2.73058C9.02681 2.68785 9.13194 2.65169 9.2383 2.6198C9.33764 2.58989 9.43865 2.56594 9.54042 2.54564C9.59185 2.53542 9.64357 2.52703 9.69546 2.51925C9.78182 2.50628 9.63641 2.52581 9.72338 2.51558C9.75847 2.51146 9.79372 2.50841 9.82897 2.50536C10.0514 2.48644 10.2756 2.4927 10.4971 2.51864C10.5306 2.52291 10.5321 2.52306 10.5016 2.51894C10.5275 2.5226 10.5534 2.52688 10.5794 2.5313C10.631 2.53985 10.6821 2.55022 10.733 2.56136C10.8257 2.58135 10.9172 2.60652 11.0078 2.6346C11.0976 2.66237 11.1858 2.69503 11.2726 2.73043C11.2144 2.70678 11.292 2.73943 11.2982 2.74218C11.3214 2.75255 11.3445 2.76339 11.3675 2.77422C11.4134 2.79589 11.4584 2.81908 11.5033 2.84288C11.5851 2.88622 11.6646 2.93398 11.7424 2.98418C11.7777 3.00692 11.8123 3.03072 11.8466 3.05483C11.8672 3.06917 11.8875 3.08413 11.9078 3.09908C11.9751 3.14852 11.8634 3.06414 11.929 3.11541C12.0807 3.23412 12.2205 3.36748 12.3491 3.5106C12.377 3.54173 12.404 3.57377 12.4309 3.60582C12.4469 3.62519 12.4626 3.64473 12.4782 3.66441C12.4373 3.61299 12.4886 3.67891 12.4933 3.68531C12.5485 3.75932 12.5998 3.83622 12.6486 3.91465C12.6976 3.99339 12.7423 4.07472 12.7844 4.15727C12.8075 4.20243 12.829 4.24851 12.85 4.29475C12.8539 4.30299 12.8871 4.38111 12.8604 4.31703C12.8702 4.34068 12.8795 4.36433 12.8888 4.38813C12.9575 4.56452 13.0084 4.74763 13.0454 4.93317C13.0539 4.97605 13.0611 5.01908 13.0679 5.06211C13.0692 5.06974 13.0808 5.15626 13.0724 5.08973C13.0757 5.11597 13.0783 5.14237 13.0809 5.16861C13.0916 5.27482 13.0959 5.38208 13.0963 5.48935C13.0969 5.64636 13.2243 5.77866 13.3826 5.77973C13.5384 5.78079 13.6737 5.65048 13.673 5.49347C13.6693 4.57504 13.3153 3.69429 12.6863 3.02597C12.0637 2.36449 11.1919 1.97722 10.2892 1.92261C9.36877 1.86692 8.46377 2.19498 7.76412 2.7864C7.07123 3.37218 6.65069 4.22089 6.54573 5.1155C6.4412 6.00648 6.70655 6.94078 7.25284 7.65015C7.80202 8.36351 8.60018 8.86429 9.49221 9.01261C10.403 9.16413 11.3527 8.96638 12.1155 8.44148C12.8545 7.93289 13.3889 7.15394 13.5855 6.27734C13.6431 6.02099 13.6716 5.75593 13.6727 5.49336C13.6745 5.12104 13.0979 5.11799 13.0963 5.48939Z" fill="black"/>
<path d="M5.02525 17.8434V15.0425V13.8043C5.02525 13.7364 5.02632 13.6686 5.02983 13.6007C5.03258 13.5474 5.03777 13.4943 5.04357 13.4412C5.05318 13.3544 5.03456 13.4965 5.04738 13.4104C5.05119 13.3845 5.05592 13.3585 5.0605 13.3326C5.08034 13.2217 5.10857 13.1124 5.14183 13.0047C5.25444 12.6403 5.4702 12.292 5.74441 12.0127C5.81506 11.9408 5.89044 11.8738 5.96826 11.8101C6.03295 11.757 5.92202 11.8446 5.9887 11.7939C6.00885 11.7786 6.02929 11.764 6.04974 11.7492C6.09765 11.7149 6.14709 11.6827 6.19714 11.6514C6.2832 11.5975 6.37292 11.5498 6.46432 11.5057C6.48736 11.4947 6.51055 11.4841 6.53389 11.4738C6.61156 11.439 6.47774 11.4959 6.55678 11.464C6.61233 11.4416 6.66894 11.4217 6.72585 11.403C6.82442 11.3705 6.92528 11.345 7.0269 11.3238C7.07833 11.3131 7.13021 11.3045 7.18209 11.2968C7.2686 11.2838 7.12319 11.3032 7.21047 11.2936C7.24587 11.2896 7.28127 11.287 7.31667 11.2844C7.38946 11.2792 7.46224 11.2781 7.53518 11.2781H8.5717H12.076H12.5637H12.6684C12.6812 11.2781 12.694 11.2781 12.7068 11.2783C12.7607 11.2786 12.8146 11.2812 12.8683 11.2846C12.895 11.2862 12.9215 11.2887 12.9481 11.2911C12.9584 11.292 13.0651 11.305 13.0057 11.2968C13.2204 11.3267 13.4306 11.385 13.6321 11.464C13.711 11.495 13.581 11.4414 13.6585 11.4751C13.682 11.4854 13.705 11.4962 13.7282 11.507C13.7743 11.5287 13.8196 11.5522 13.8645 11.5763C13.9612 11.6283 14.0542 11.6874 14.1442 11.7506C14.165 11.7651 14.1852 11.7802 14.2055 11.7953C14.1546 11.7574 14.2211 11.8082 14.2266 11.8127C14.266 11.8442 14.3041 11.8774 14.3418 11.9109C14.4233 11.9837 14.4996 12.0624 14.5721 12.1442C14.6055 12.1821 14.6374 12.2211 14.6688 12.2608C14.6282 12.2095 14.6793 12.2761 14.6839 12.2825C14.6989 12.3029 14.7134 12.3237 14.7277 12.3444C14.7904 12.4348 14.8464 12.5295 14.8978 12.6266C14.9218 12.6716 14.9438 12.7175 14.9651 12.7639C14.9689 12.772 15.0027 12.8503 14.976 12.7863C14.9859 12.81 14.995 12.8339 15.0042 12.8579C15.0443 12.9624 15.0767 13.0698 15.1038 13.1783C15.1165 13.229 15.127 13.2802 15.1366 13.3315C15.1415 13.3573 15.1456 13.3832 15.1499 13.4093C15.1511 13.4168 15.1623 13.5035 15.1542 13.4374C15.1672 13.5439 15.1728 13.6515 15.1728 13.7588V14.0382V15.636V17.8394C15.1728 17.9964 15.3013 18.1289 15.4591 18.1298C15.6153 18.1308 15.7494 18.0005 15.7494 17.8435V15.0426V13.8044C15.7494 13.0285 15.4754 12.297 14.9608 11.7156C14.3914 11.072 13.537 10.7018 12.6806 10.7018H11.8023H8.27537C8.00208 10.7018 7.72865 10.6984 7.45552 10.7023C6.54595 10.7154 5.66001 11.1535 5.10291 11.8731C4.66041 12.4445 4.44861 13.1214 4.44861 13.8413V15.1839V17.8394C4.44861 17.9964 4.57709 18.1289 4.73486 18.1298C4.89111 18.1307 5.02525 18.0004 5.02525 17.8434Z" fill="black"/>
</svg>
