<svg width="26" height="25" viewBox="0 0 26 25" fill="none" xmlns="http://www.w3.org/2000/svg">
<path d="M3.76577 9.144C3.10177 9.144 2.45777 9.056 1.83377 8.88C1.21777 8.696 0.721766 8.46 0.345766 8.172L1.00577 6.708C1.36577 6.972 1.79377 7.184 2.28977 7.344C2.78577 7.504 3.28177 7.584 3.77777 7.584C4.32977 7.584 4.73777 7.504 5.00177 7.344C5.26577 7.176 5.39777 6.956 5.39777 6.684C5.39777 6.484 5.31777 6.32 5.15777 6.192C5.00577 6.056 4.80577 5.948 4.55777 5.868C4.31777 5.788 3.98977 5.7 3.57377 5.604C2.93377 5.452 2.40977 5.3 2.00177 5.148C1.59377 4.996 1.24177 4.752 0.945766 4.416C0.657766 4.08 0.513766 3.632 0.513766 3.072C0.513766 2.584 0.645766 2.144 0.909766 1.752C1.17377 1.352 1.56977 1.036 2.09777 0.804C2.63377 0.572 3.28577 0.456 4.05377 0.456C4.58977 0.456 5.11377 0.52 5.62577 0.648C6.13777 0.776 6.58577 0.96 6.96977 1.2L6.36977 2.676C5.59377 2.236 4.81777 2.016 4.04177 2.016C3.49777 2.016 3.09377 2.104 2.82977 2.28C2.57377 2.456 2.44577 2.688 2.44577 2.976C2.44577 3.264 2.59377 3.48 2.88977 3.624C3.19377 3.76 3.65377 3.896 4.26977 4.032C4.90977 4.184 5.43377 4.336 5.84177 4.488C6.24977 4.64 6.59777 4.88 6.88577 5.208C7.18177 5.536 7.32977 5.98 7.32977 6.54C7.32977 7.02 7.19377 7.46 6.92177 7.86C6.65777 8.252 6.25777 8.564 5.72177 8.796C5.18577 9.028 4.53377 9.144 3.76577 9.144ZM16.1701 0.599999V9H14.2861V7.98C13.7101 8.756 12.8621 9.144 11.7421 9.144C10.7501 9.144 9.97411 8.832 9.41411 8.208C8.86211 7.576 8.58611 6.68 8.58611 5.52V0.599999H10.5301V5.46C10.5301 6.132 10.6861 6.64 10.9981 6.984C11.3181 7.32 11.7501 7.488 12.2941 7.488C12.8781 7.488 13.3461 7.308 13.6981 6.948C14.0501 6.58 14.2261 6.04 14.2261 5.328V0.599999H16.1701ZM23.514 9L21.894 6.66H21.798H20.106V9H18.162V0.599999H21.798C22.542 0.599999 23.186 0.724 23.73 0.972C24.282 1.22 24.706 1.572 25.002 2.028C25.298 2.484 25.446 3.024 25.446 3.648C25.446 4.272 25.294 4.812 24.99 5.268C24.694 5.716 24.27 6.06 23.718 6.3L25.602 9H23.514ZM23.478 3.648C23.478 3.176 23.326 2.816 23.022 2.568C22.718 2.312 22.274 2.184 21.69 2.184H20.106V5.112H21.69C22.274 5.112 22.718 4.984 23.022 4.728C23.326 4.472 23.478 4.112 23.478 3.648ZM11.3669 15.6L7.73092 24H5.81092L2.18692 15.6H4.28692L6.84292 21.6L9.43492 15.6H11.3669ZM15.7897 15.456C16.5657 15.456 17.2417 15.608 17.8177 15.912C18.3937 16.216 18.8417 16.664 19.1617 17.256C19.4817 17.848 19.6417 18.564 19.6417 19.404V24H17.6977V21.984H13.8577V24H11.9377V19.404C11.9377 18.564 12.0977 17.848 12.4177 17.256C12.7377 16.664 13.1857 16.216 13.7617 15.912C14.3377 15.608 15.0137 15.456 15.7897 15.456ZM17.6977 20.424V19.224C17.6977 18.528 17.5257 18.004 17.1817 17.652C16.8377 17.292 16.3697 17.112 15.7777 17.112C15.1777 17.112 14.7057 17.292 14.3617 17.652C14.0257 18.004 13.8577 18.528 13.8577 19.224V20.424H17.6977ZM22.1365 24.096C21.8085 24.096 21.5325 23.984 21.3085 23.76C21.0845 23.536 20.9725 23.256 20.9725 22.92C20.9725 22.576 21.0845 22.3 21.3085 22.092C21.5325 21.876 21.8085 21.768 22.1365 21.768C22.4645 21.768 22.7405 21.876 22.9645 22.092C23.1885 22.3 23.3005 22.576 23.3005 22.92C23.3005 23.256 23.1885 23.536 22.9645 23.76C22.7405 23.984 22.4645 24.096 22.1365 24.096Z" fill="#1860C6"/>
</svg>
